<?xml version="1.0" encoding="UTF-8"?>
<svg width="10px" height="10px" viewBox="0 0 10 10" version="1.1" xmlns="http://www.w3.org/2000/svg" xmlns:xlink="http://www.w3.org/1999/xlink">
    <!-- Generator: Sketch 40.3 (33839) - http://www.bohemiancoding.com/sketch -->
    <title>time-white</title>
    <desc>Created with Sketch.</desc>
    <defs></defs>
    <g id="Page-1" stroke="none" stroke-width="1" fill="none" fill-rule="evenodd">
        <g id="New-Task" transform="translate(-1015.000000, -294.000000)" fill="#FFFFFF">
            <g id="time-white" transform="translate(1015.000000, 294.000000)">
                <g id="Layer_1">
                    <g id="Group">
                        <path d="M9.08333333,2.16666667 C8.20833333,0.833333333 6.70833333,0 5,0 C2.25,0 0,2.25 0,5 L0.833333333,5 C0.833333333,2.70833333 2.70833333,0.833333333 5,0.833333333 C6.45833333,0.833333333 7.75,1.58333333 8.5,2.75 L7.5,3.75 L10,3.75 L10,1.25 L9.08333333,2.16666667 L9.08333333,2.16666667 Z" id="Shape"></path>
                        <ellipse id="Oval" cx="1.66666667" cy="5" rx="0.416666667" ry="0.416666667"></ellipse>
                        <circle id="Oval" cx="2.625" cy="2.625" r="0.416666667"></circle>
                        <ellipse id="Oval" cx="7.375" cy="2.625" rx="0.416666667" ry="0.416666667"></ellipse>
                        <circle id="Oval" cx="8.33333333" cy="5" r="0.416666667"></circle>
                        <path d="M7.04166667,7.66666667 C7.20833333,7.83333333 7.45833333,7.83333333 7.625,7.66666667 C7.79166667,7.5 7.79166667,7.25 7.625,7.08333333 C7.45833333,6.91666667 7.20833333,6.91666667 7.04166667,7.08333333 C6.91666667,7.20833333 6.91666667,7.5 7.04166667,7.66666667 L7.04166667,7.66666667 Z" id="Shape"></path>
                        <circle id="Oval" cx="5" cy="8.33333333" r="0.416666667"></circle>
                        <path d="M2.33333333,7.04166667 C2.16666667,7.20833333 2.16666667,7.45833333 2.33333333,7.625 C2.5,7.79166667 2.75,7.79166667 2.91666667,7.625 C3.08333333,7.45833333 3.08333333,7.20833333 2.91666667,7.04166667 C2.79166667,6.91666667 2.5,6.91666667 2.33333333,7.04166667 L2.33333333,7.04166667 Z" id="Shape"></path>
                        <path d="M5,1.25 C4.75,1.25 4.58333333,1.41666667 4.58333333,1.66666667 L4.58333333,4.29166667 C4.33333333,4.41666667 4.16666667,4.70833333 4.16666667,5 C4.16666667,5.45833333 4.54166667,5.83333333 5,5.83333333 C5.08333333,5.83333333 5.125,5.83333333 5.20833333,5.79166667 L5.875,6.45833333 C6.04166667,6.625 6.29166667,6.625 6.45833333,6.45833333 C6.625,6.29166667 6.625,6.04166667 6.45833333,5.875 L5.79166667,5.20833333 C5.79166667,5.125 5.83333333,5.08333333 5.83333333,5 C5.83333333,4.70833333 5.66666667,4.41666667 5.41666667,4.29166667 L5.41666667,1.66666667 C5.41666667,1.41666667 5.25,1.25 5,1.25 L5,1.25 Z M4.58333333,5 C4.58333333,4.75 4.75,4.58333333 5,4.58333333 C5.25,4.58333333 5.41666667,4.75 5.41666667,5 C5.41666667,5.25 5.25,5.41666667 5,5.41666667 C4.95833333,5.41666667 4.875,5.41666667 4.83333333,5.375 C4.79166667,5.33333333 4.75,5.33333333 4.70833333,5.29166667 L4.70833333,5.29166667 C4.625,5.20833333 4.58333333,5.125 4.58333333,5 L4.58333333,5 Z" id="Shape"></path>
                        <path d="M5,9.16666667 C3.54166667,9.16666667 2.25,8.41666667 1.5,7.25 L2.5,6.25 L0,6.25 L0,8.75 L0.916666667,7.83333333 C1.79166667,9.125 3.29166667,10 5,10 C7.75,10 10,7.75 10,5 L9.16666667,5 C9.16666667,7.29166667 7.29166667,9.16666667 5,9.16666667 L5,9.16666667 Z" id="Shape"></path>
                    </g>
                </g>
            </g>
        </g>
    </g>
</svg>