<?xml version="1.0" encoding="UTF-8" standalone="no"?>
<!DOCTYPE svg PUBLIC "-//W3C//DTD SVG 1.1//EN"
"http://www.w3.org/Graphics/SVG/1.1/DTD/svg11.dtd">
<svg version="1.1" xmlns="http://www.w3.org/2000/svg" xmlns:xlink="http://www.w3.org/1999/xlink">
<defs>
<style type="text/css"><![CDATA[
.g3_1{
fill: none;
stroke: #C0C0C0;
stroke-width: 2;
stroke-linecap: butt;
stroke-linejoin: miter;
}
.g2_1{
fill: none;
stroke: #C0C0C0;
stroke-width: 1;
stroke-linecap: butt;
stroke-linejoin: miter;
}
.g1_1{
fill: none;
stroke: #0000F0;
stroke-width: 3;
stroke-linecap: butt;
stroke-linejoin: miter;
}
]]></style>
</defs>
<path d="M42.5,94.5l812,0" class="g1_1" />
<path d="M42.5,149.5l128,0" class="g2_1" />
<path d="M170.5,149.5l257,0" class="g2_1" />
<path d="M42.5,203.5l128,0" class="g2_1" />
<path d="M170.5,203.5l257,0" class="g2_1" />
<path d="M42.5,232.5l128,0" class="g2_1" />
<path d="M170.5,232.5l257,0" class="g2_1" />
<path d="M42.5,261.5l128,0" class="g2_1" />
<path d="M170.5,261.5l257,0" class="g2_1" />
<path d="M469.5,261.5l128,0" class="g2_1" />
<path d="M597.5,261.5l257,0" class="g2_1" />
<path d="M42.5,314.5l128,0" class="g2_1" />
<path d="M170.5,314.5l257,0" class="g2_1" />
<path d="M469.5,314.5l128,0" class="g2_1" />
<path d="M597.5,314.5l257,0" class="g2_1" />
<path d="M42.5,368.5l128,0" class="g2_1" />
<path d="M170.5,368.5l257,0" class="g2_1" />
<path d="M469.5,368.5l128,0" class="g2_1" />
<path d="M597.5,368.5l257,0" class="g2_1" />
<path d="M42.5,397.5l128,0" class="g2_1" />
<path d="M170.5,397.5l257,0" class="g2_1" />
<path d="M469.5,397.5l128,0" class="g2_1" />
<path d="M597.5,397.5l257,0" class="g2_1" />
<path d="M42.5,426.5l128,0" class="g2_1" />
<path d="M170.5,426.5l257,0" class="g2_1" />
<path d="M469.5,426.5l128,0" class="g2_1" />
<path d="M597.5,426.5l257,0" class="g2_1" />
<path d="M42.5,455.5l128,0" class="g2_1" />
<path d="M170.5,455.5l257,0" class="g2_1" />
<path d="M469.5,455.5l128,0" class="g2_1" />
<path d="M597.5,455.5l257,0" class="g2_1" />
<path d="M42.5,508.5l128,0" class="g2_1" />
<path d="M170.5,508.5l257,0" class="g2_1" />
<path d="M42.5,537.5l128,0" class="g2_1" />
<path d="M170.5,537.5l257,0" class="g2_1" />
<path d="M42.5,591.5l128,0" class="g2_1" />
<path d="M170.5,591.5l257,0" class="g2_1" />
<path d="M42.5,650.5l812,0" class="g1_1" />
<path d="M42.5,737.5l113,0" class="g2_1" />
<path d="M155.5,737.5l38,0" class="g2_1" />
<path d="M193.5,737.5l189,0" class="g2_1" />
<path d="M471.5,708.5l113,0" class="g2_1" />
<path d="M584.5,708.5l38,0" class="g2_1" />
<path d="M622.5,708.5l189,0" class="g2_1" />
<path d="M471.5,737.5l113,0" class="g2_1" />
<path d="M584.5,737.5l38,0" class="g2_1" />
<path d="M622.5,737.5l189,0" class="g2_1" />
<path d="M42.5,766.5l113,0" class="g2_1" />
<path d="M155.5,766.5l38,0" class="g2_1" />
<path d="M193.5,766.5l189,0" class="g2_1" />
<path d="M471.5,766.5l113,0" class="g2_1" />
<path d="M584.5,766.5l38,0" class="g2_1" />
<path d="M622.5,766.5l189,0" class="g2_1" />
<path d="M42.5,820.5l113,0" class="g2_1" />
<path d="M155.5,820.5l38,0" class="g2_1" />
<path d="M193.5,820.5l189,0" class="g2_1" />
<path d="M471.5,795.5l113,0" class="g2_1" />
<path d="M584.5,795.5l38,0" class="g2_1" />
<path d="M622.5,795.5l189,0" class="g2_1" />
<path d="M42.5,849.5l113,0" class="g2_1" />
<path d="M155.5,849.5l38,0" class="g2_1" />
<path d="M193.5,849.5l189,0" class="g2_1" />
<path d="M42.5,878.5l113,0" class="g2_1" />
<path d="M155.5,878.5l38,0" class="g2_1" />
<path d="M193.5,878.5l189,0" class="g2_1" />
<path d="M0,887l424,0" class="g3_1" />
<path d="M424,887l5,0" class="g3_1" />
<path d="M429,887l425,0" class="g3_1" />
<image x="0" y="0" width="1418" height="62" xlink:href="img/1.png" />
</svg>